# xmcd
#
# Track frame offsets:
#	150
#	16273
#	33021
#	47713
#	64906
#	81013
#	98096
#	112658
#	127463
#	143246
#	158336
#	171541
# Disc length: 2481 seconds
# Revision: 1
# Processed by: cddbd v1.5.1PL2 Copyright (c) Steve Scherf et al.
#
# Submitted via: libkcddb 0.21
#
DISCID=9509af0c
DTITLE=Paolo Conte - Novecento
DYEAR=1992
DGENRE=
TTITLE0=Novecento
TTITLE1=Il Treno Va
TTITLE2=Una Di Queste Notti
TTITLE3=Pesce Veloce Del Baltico
TTITLE4=La Donna Della Tua Vita
TTITLE5=Per Quel Che Vale
TTITLE6=Inno In Re Bemolle
TTITLE7=Gong-oh
TTITLE8=I Giardini Pensili Hanno Fatto Il Loro Tempo
TTITLE9=Schiava Del Politeama
TTITLE10=Chiamami Adesso
TTITLE11=Brillantina bengalese
EXTD=
EXTT0=
EXTT1=
EXTT2=
EXTT3=
EXTT4=
EXTT5=
EXTT6=
EXTT7=
EXTT8=
EXTT9=
EXTT10=
EXTT11=
PLAYORDER=
